<?xml version="1.0" encoding="UTF-8"?>
<!DOCTYPE svg PUBLIC "-//W3C//DTD SVG 1.1//EN" "http://www.w3.org/Graphics/SVG/1.1/DTD/svg11.dtd">
<svg xmlns="http://www.w3.org/2000/svg" version="1.1" width="16px" height="16px" style="shape-rendering:geometricPrecision; text-rendering:geometricPrecision; image-rendering:optimizeQuality; fill-rule:evenodd; clip-rule:evenodd" xmlns:xlink="http://www.w3.org/1999/xlink">
<g><path style="opacity:1" fill="#03c004" d="M -0.5,-0.5 C 1.16667,-0.5 2.83333,-0.5 4.5,-0.5C 5.28696,1.10422 6.6203,1.77089 8.5,1.5C 7.89022,2.39105 7.55688,3.39105 7.5,4.5C 6.83333,4.83333 6.16667,5.16667 5.5,5.5C 5.5,4.5 5.5,3.5 5.5,2.5C 4.16667,2.5 2.83333,2.5 1.5,2.5C 1.5,3.83333 1.5,5.16667 1.5,6.5C 0.833333,6.83333 0.166667,7.16667 -0.5,7.5C -0.5,4.83333 -0.5,2.16667 -0.5,-0.5 Z"/></g>
<g><path style="opacity:0.997" fill="#00c500" d="M 8.5,1.5 C 10.8333,1.5 13.1667,1.5 15.5,1.5C 15.5,3.16667 15.5,4.83333 15.5,6.5C 14.8333,5.83333 14.1667,5.16667 13.5,4.5C 13.38,3.41383 12.7133,2.74716 11.5,2.5C 10.2867,2.74716 9.61998,3.41383 9.5,4.5C 8.83333,4.5 8.16667,4.5 7.5,4.5C 7.55688,3.39105 7.89022,2.39105 8.5,1.5 Z"/></g>
<g><path style="opacity:1" fill="#000000" d="M 5.5,5.5 C 5.5,5.83333 5.5,6.16667 5.5,6.5C 4.16667,6.5 2.83333,6.5 1.5,6.5C 1.5,5.16667 1.5,3.83333 1.5,2.5C 2.83333,2.5 4.16667,2.5 5.5,2.5C 5.5,3.5 5.5,4.5 5.5,5.5 Z"/></g>
<g><path style="opacity:1" fill="#5c97df" d="M 7.5,4.5 C 8.16667,4.5 8.83333,4.5 9.5,4.5C 10.4511,5.91866 10.7845,7.58533 10.5,9.5C 9.16667,9.5 7.83333,9.5 6.5,9.5C 5.83333,9.5 5.5,9.16667 5.5,8.5C 5.5,7.83333 5.5,7.16667 5.5,6.5C 5.5,6.16667 5.5,5.83333 5.5,5.5C 6.16667,5.16667 6.83333,4.83333 7.5,4.5 Z"/></g>
<g><path style="opacity:1" fill="#03c904" d="M 13.5,4.5 C 14.1667,5.16667 14.8333,5.83333 15.5,6.5C 15.5,8.5 15.5,10.5 15.5,12.5C 11.2952,10.5726 10.6285,7.90595 13.5,4.5 Z"/></g>
<g><path style="opacity:1" fill="#000000" d="M 5.5,8.5 C 5.5,9.16667 5.83333,9.5 6.5,9.5C 8.42001,10.0652 10.0867,11.0652 11.5,12.5C 11.6309,13.3764 11.2975,14.0431 10.5,14.5C 9.73485,13.3881 8.73485,12.7214 7.5,12.5C 6.26515,12.7214 5.26515,13.3881 4.5,14.5C 4.16667,13.5 3.83333,12.5 3.5,11.5C 3.63985,9.97041 4.30652,8.97041 5.5,8.5 Z"/></g>
<g><path style="opacity:1" fill="#4e3d34" d="M 13.5,4.5 C 10.6285,7.90595 11.2952,10.5726 15.5,12.5C 15.5,13.1667 15.5,13.8333 15.5,14.5C 13.9382,14.2671 12.6049,13.6005 11.5,12.5C 10.0867,11.0652 8.42001,10.0652 6.5,9.5C 7.83333,9.5 9.16667,9.5 10.5,9.5C 10.7845,7.58533 10.4511,5.91866 9.5,4.5C 9.61998,3.41383 10.2867,2.74716 11.5,2.5C 12.7133,2.74716 13.38,3.41383 13.5,4.5 Z"/></g>
<g><path style="opacity:1" fill="#02ca02" d="M 1.5,6.5 C 2.83333,6.5 4.16667,6.5 5.5,6.5C 5.5,7.16667 5.5,7.83333 5.5,8.5C 4.30652,8.97041 3.63985,9.97041 3.5,11.5C 3.83333,12.5 4.16667,13.5 4.5,14.5C 5.26515,13.3881 6.26515,12.7214 7.5,12.5C 7.44312,13.609 7.10978,14.609 6.5,15.5C 4.16667,15.5 1.83333,15.5 -0.5,15.5C -0.5,12.8333 -0.5,10.1667 -0.5,7.5C 0.166667,7.16667 0.833333,6.83333 1.5,6.5 Z"/></g>
<g><path style="opacity:1" fill="#00c300" d="M 7.5,12.5 C 8.73485,12.7214 9.73485,13.3881 10.5,14.5C 11.2975,14.0431 11.6309,13.3764 11.5,12.5C 12.6049,13.6005 13.9382,14.2671 15.5,14.5C 15.5,14.8333 15.5,15.1667 15.5,15.5C 12.5,15.5 9.5,15.5 6.5,15.5C 7.10978,14.609 7.44312,13.609 7.5,12.5 Z"/></g>
</svg>
